<?xml version="1.0" encoding="UTF-8" standalone="no"?>
<!-- Created with Inkscape (http://www.inkscape.org/) -->

<svg
   xmlns:dc="http://purl.org/dc/elements/1.1/"
   xmlns:cc="http://creativecommons.org/ns#"
   xmlns:rdf="http://www.w3.org/1999/02/22-rdf-syntax-ns#"
   xmlns:svg="http://www.w3.org/2000/svg"
   xmlns="http://www.w3.org/2000/svg"
   xmlns:sodipodi="http://sodipodi.sourceforge.net/DTD/sodipodi-0.dtd"
   xmlns:inkscape="http://www.inkscape.org/namespaces/inkscape"
   width="744.09448819"
   height="1052.3622047"
   id="svg6093"
   version="1.1"
   inkscape:version="0.48.2 r9819"
   sodipodi:docname="ic_menu_albums.svg"
   inkscape:export-filename="D:\Develop\Android\vk_music_sync\trunk\library\art\ic_menu_albums_ldpi.png"
   inkscape:export-xdpi="33.749977"
   inkscape:export-ydpi="33.749977">
  <defs
     id="defs6095" />
  <sodipodi:namedview
     id="base"
     pagecolor="#ffffff"
     bordercolor="#666666"
     borderopacity="1.0"
     inkscape:pageopacity="0.0"
     inkscape:pageshadow="2"
     inkscape:zoom="5.4178481"
     inkscape:cx="384.62502"
     inkscape:cy="645.01235"
     inkscape:document-units="px"
     inkscape:current-layer="layer1"
     showgrid="false"
     inkscape:snap-bbox="true"
     inkscape:bbox-nodes="true"
     inkscape:bbox-paths="true"
     inkscape:snap-bbox-edge-midpoints="true"
     inkscape:snap-bbox-midpoints="true"
     inkscape:object-paths="true"
     inkscape:snap-intersection-paths="true"
     inkscape:object-nodes="true"
     inkscape:snap-smooth-nodes="true"
     inkscape:snap-midpoints="true"
     inkscape:snap-object-midpoints="true"
     inkscape:snap-center="true"
     inkscape:snap-page="true"
     inkscape:window-width="1366"
     inkscape:window-height="706"
     inkscape:window-x="-8"
     inkscape:window-y="-8"
     inkscape:window-maximized="1"
     showguides="false"
     inkscape:guide-bbox="true">
    <inkscape:grid
       type="xygrid"
       id="grid3800" />
    <sodipodi:guide
       orientation="1,0"
       position="449.03125,560.86218"
       id="guide3869" />
    <sodipodi:guide
       orientation="0,1"
       position="299.96875,709.92468"
       id="guide3871" />
    <sodipodi:guide
       orientation="0,1"
       position="310.09375,720.04968"
       id="guide3874" />
    <sodipodi:guide
       orientation="1,0"
       position="459.15625,570.98718"
       id="guide3876" />
  </sodipodi:namedview>
  <metadata
     id="metadata6098">
    <rdf:RDF>
      <cc:Work
         rdf:about="">
        <dc:format>image/svg+xml</dc:format>
        <dc:type
           rdf:resource="http://purl.org/dc/dcmitype/StillImage" />
        <dc:title></dc:title>
      </cc:Work>
    </rdf:RDF>
  </metadata>
  <g
     inkscape:label="Layer 1"
     inkscape:groupmode="layer"
     id="layer1">
    <path
       style="fill:#000000;fill-opacity:1;fill-rule:nonzero;stroke:none"
       d="m 348.40551,359.63716 0,2.10708 81.50582,0 0.0639,0 0.51081,0 0,81.50582 2.13901,0 0,-83.6129 -84.21949,0 z m -5.87429,5.33156 0,2.39441 81.50582,0 0.57466,0 0,81.79315 2.68174,0 0,-84.18756 -84.76222,0 z m -5.90622,5.58696 0,84.50682 84.79415,0 0,-84.50682 -84.79415,0 z m 40.22614,15.93083 1.69205,0.47888 26.30662,7.02361 1.69205,0.44696 -0.79814,2.90522 -4.69305,17.59096 -4.6292,17.2717 c -0.45093,2.15909 -3.26397,4.0792 -6.86398,4.50149 -4.11428,0.48267 -7.68598,-1.18534 -7.98138,-3.70336 -0.29537,-2.51805 2.78161,-4.9447 6.89591,-5.42733 2.89286,-0.33937 5.52087,0.39424 6.92784,1.72398 l 7.7579,-28.95644 -26.30662,-7.08746 -3.79914,14.17492 -4.66112,17.49518 -0.0639,0 c -0.59744,2.06272 -3.29777,3.87089 -6.76821,4.27802 -4.11461,0.48266 -7.68599,-1.18534 -7.98138,-3.70336 -0.2954,-2.51803 2.78133,-4.94464 6.89591,-5.42734 2.89309,-0.33937 5.52077,0.36235 6.92784,1.69206 l 9.44995,-35.27769 z m 0,6.76821 1.69205,-6.28933 -0.79814,2.8733 -0.89391,3.41603 z"
       id="rect3786"
       inkscape:connector-curvature="0" />
  </g>
</svg>
