<?xml version="1.0" encoding="UTF-8" standalone="no"?>
<!-- Created with Inkscape (http://www.inkscape.org/) -->

<svg
   xmlns:dc="http://purl.org/dc/elements/1.1/"
   xmlns:cc="http://creativecommons.org/ns#"
   xmlns:rdf="http://www.w3.org/1999/02/22-rdf-syntax-ns#"
   xmlns:svg="http://www.w3.org/2000/svg"
   xmlns="http://www.w3.org/2000/svg"
   xmlns:sodipodi="http://sodipodi.sourceforge.net/DTD/sodipodi-0.dtd"
   xmlns:inkscape="http://www.inkscape.org/namespaces/inkscape"
   width="744.09448819"
   height="1052.3622047"
   id="svg4471"
   version="1.1"
   inkscape:version="0.48.2 r9819"
   sodipodi:docname="ic_menu_check_all.svg">
  <defs
     id="defs4473" />
  <sodipodi:namedview
     id="base"
     pagecolor="#ffffff"
     bordercolor="#666666"
     borderopacity="1.0"
     inkscape:pageopacity="0.0"
     inkscape:pageshadow="2"
     inkscape:zoom="5.17"
     inkscape:cx="324.66495"
     inkscape:cy="636.099"
     inkscape:document-units="px"
     inkscape:current-layer="layer1"
     showgrid="false"
     inkscape:snap-bbox="true"
     inkscape:bbox-nodes="true"
     inkscape:bbox-paths="true"
     inkscape:snap-bbox-edge-midpoints="true"
     inkscape:snap-bbox-midpoints="true"
     inkscape:object-paths="true"
     inkscape:snap-intersection-paths="true"
     inkscape:object-nodes="true"
     inkscape:snap-smooth-nodes="true"
     inkscape:snap-midpoints="true"
     inkscape:snap-object-midpoints="true"
     inkscape:snap-center="true"
     inkscape:snap-page="true"
     inkscape:window-width="1366"
     inkscape:window-height="706"
     inkscape:window-x="-8"
     inkscape:window-y="-8"
     inkscape:window-maximized="1" />
  <metadata
     id="metadata4476">
    <rdf:RDF>
      <cc:Work
         rdf:about="">
        <dc:format>image/svg+xml</dc:format>
        <dc:type
           rdf:resource="http://purl.org/dc/dcmitype/StillImage" />
        <dc:title></dc:title>
      </cc:Work>
    </rdf:RDF>
  </metadata>
  <g
     inkscape:label="Layer 1"
     inkscape:groupmode="layer"
     id="layer1">
    <path
       style="fill:#000000;fill-opacity:1"
       d="M 282.65625 366.25 C 278.22425 366.25 274.65625 369.818 274.65625 374.25 L 274.65625 458.25 C 274.65625 462.682 278.22425 466.25 282.65625 466.25 L 366.65625 466.25 C 371.08825 466.25 374.65625 462.682 374.65625 458.25 L 374.65625 374.25 C 374.65625 369.818 371.08825 366.25 366.65625 366.25 L 282.65625 366.25 z M 297.65625 381.25 L 351.65625 381.25 C 356.08825 381.25 359.65625 384.818 359.65625 389.25 L 359.65625 443.25 C 359.65625 447.682 356.08825 451.25 351.65625 451.25 L 297.65625 451.25 C 293.22425 451.25 289.65625 447.682 289.65625 443.25 L 289.65625 389.25 C 289.65625 384.818 293.22425 381.25 297.65625 381.25 z "
       id="rect5269" />
    <g
       id="agenda"
       transform="matrix(0.23282101,0,0,0.23282101,180.34081,344.40892)">
  	<path
   id="path5256"
   d="m 604.44766,392.43328 c -2.955,3.262 -7.797,3.262 -10.752,0.013 l -79.029,-86.64 c -2.973,-3.249 -2.848,-8.47 0.264,-11.58 l 23.578,-23.562 c 3.111,-3.11 8.172,-3.076 11.219,0.078 l 43.658,45.095 c 3.062,3.171 8,3.094 10.967,-0.155 l 82.783,-90.704 c 2.969,-3.248 8.064,-3.499 11.342,-0.564 l 26.154,23.518 c 3.285,2.938 3.535,8.017 0.578,11.266 l -120.762,133.235 z"
   inkscape:connector-curvature="0" />

  	
  </g>
  </g>
</svg>
